<?xml version="1.0" encoding="UTF-8"?>
<svg viewBox="0 0 287.70996 194.66661" xmlns="http://www.w3.org/2000/svg">
 <g transform="translate(-401.97 -372.99)">
  <path d="m571.73 500.58c-13.801 1.049-29.857 1.8287-40.174 4.1921-6.4108 3.8376-3.7341 7.7963-15.575 11.586-14.567 4.382-21.203 9.0902-31.062 13.653-5.7291 2.3223-2.4648 5.0059-14.177 7.045-10.096 1.7287-13.292 0.75851-19.883-0.23289-9.2308-0.93304-20.912-2.392-14.643-0.40757-11.097 0.1179-13.408-0.0765-14.061 1.048-0.94885 1.6335-16.264 0.0673-13.595 1.1062 9.1315 0.92827 21.597 1.1489 32.227 1.7176 8.4979-0.0183 23.831 1.7094 28.617-0.69868 8.4796-1.8194 20.83-0.87244 27.947-0.14556 20.633 2.4132 16.848 3.1694 8.4715 6.1135-2.062 0.44121-7.8607 2.912-13.188 4.0756-15.214 1.2655 4.6686 7.9538 9.8398 9.1702 0.37-0.25732 0.74573-0.51502 1.1062-0.78602 1.2538 0.38999 2.6235 0.45147 3.901 0.7278l3.7554 0.81513c1.0344 0.23112 2.0822 0.50677 3.1441 0.58223 1.016 0.0722 1.9516-0.22976 2.9403-0.37845 0.80713-0.12137 1.6584-0.16391 2.4745-0.20378 0.40079-0.0196 0.8568-0.0241 1.2518 0.0582 0.34661 0.0723 0.68437 0.27072 1.0189 0.37845 0.48487 0.15614 1.4442 0.23742 1.9214-0.0291 0.53522-0.29894 0.79346-1.0897 0.61135-1.6594-7e-3 -0.0216-1.0443-1.1899-1.048-1.1936-0.13053-0.12476-0.12046-0.0976-0.11645-0.0873-8e-3 7.8e-4 -0.0505-0.0357-0.11645-0.0873-0.29675-0.23207-0.51559-0.55079-0.78602-0.81513-0.60193-0.58842-1.5849-1.1338-2.358-1.3974-0.23066-0.0786-0.43559-0.1648-0.66957-0.23289-0.48814-0.14204-0.56555-0.13985-0.69868-0.17467 0.0642 0.0206-0.19667-0.0739-0.14556-0.0582l-0.14556-0.0291c0.0572 0.0147 0.4279 0.12341-0.4949-0.17467-2.3058-0.7448-4.429-2.0022-6.8413-2.4163 5.0099-4.1768 11.127-8.3015 21.746-10.102 6.8736-2.2147 14.905-4.2974 25.094-6.1426 10.247-1.5431 18.395-3.7433 30.655-4.5706 10.291-0.80079 15.284-2.1635 26.899-2.9694 15.919-1.6927 32.294-0.2979 47.889-2.096 4.7312-0.0905 17.02-6.4003 26.142-14.265-12.401 1.9737-18.433 7.2547-33.275 7.4526 1.4257-2.6423-4.9316-4.2387-17.642-3.639-0.53629-0.22906-0.73108-0.50798-1.3683-0.7278-0.4853-0.16742-0.1174-2e-3 -0.58223-0.17467-0.27109-0.10053-0.51097-0.22052-0.78602-0.32023 1.9112-1.3401 3.5589-2.0615 6.9577-3.7263 9.593-3.0546 16.438-6.4101-3.5516-7.4526-25.657-2.0503-33.058 1.4186-50.975 4.9199-4.3922 0.23647-13.073 1.2753-15.08 0.61135-0.62496-0.20676 2.0353-3.0455-19.039-1.3391-1.6344-1.1134-1.0863-2.0478 1.6885-3.1732 2.7605-1.2321 18.76-2.5926 15.779-3.3478v-1e-4z" fill="#4d4d4d" stroke="#000" stroke-width=".15256"/>
  <g transform="matrix(.93158 0 0 .93158 -66.637 -57.082)">
   <path d="m578.55 462.03c-23.61 0.36535-20.115 14.234-24.029 31.256-2.5444 2.0593-6.1203 8.0734-9.2506 6.3903-0.97477-0.52409-6.3211-10.958-17.072 0.86543-4.0089-3.3172-5.9351-6.5832-6.8152-11.201-1.1624-4.977 6.7758-14.237 2.7143-15.951-7.2149 7.5102-16.697 14.784-18.066 25.766 5.1878 14.876 17.145 27.496 18.321 43.763 0.73086 19.058 8.0314 37.039 12.598 55.367 1.8141 9.531 11.013 17.729 7.8183 28.008-2.8281 8.7616-7.6195 6.3632-14.87 4.8778-8.9922-0.5326-21.055-2.1402-11.506 2.8126-7.651 3.5729-9.8426 3.5343-7.4446 7.543 3.4835 5.8233-11.484 4.8824-6.9234 7.6511 8.9089 0.54482 18.421-2.2477 27.487-3.3535 6.0426-2.4911 21.443-0.97986 18.734-10.533 1.4385-8.608 12.677-8.9723 19.629-8.5362 20.935 2.3042 24.441 8.8115 25.943 21.213-0.35296 2.089-2.4828 9.3229-3.3338 14.801s-0.42608 9.2002 4.337 4.2681c8.4358-6.294 11.353 1.9371 18.705 3.4519 4.7535-2.4466 0.75818-5.6851 9.4508-6.412 4.2895-1.7973 14.415 2.6031 4.0911-4.0616-19.497-9.882-30.574-21.85-28.333-36.249-0.71957-9.4923-0.30663-18.942 2.2914-28.126 3.409-8.1741 3.6204-17.994 10.297-24.311 5.333-5.6636 5.4639-11.682 11.732-17.741 7.0922-10.304 22.371-10.269 28.962-20.839 7.2994-8.8173 4.0146-19.061-0.44255-31.421-2.0333-7.5621-11.411-18.904-17.181-24.507-12.672-6.979 1.9698 13.809 2.6258 20.396-0.71081 4.0384-4.1737 14.777-7.4938 14.388-5.7132-9.3886-14.352-12.988-21.931-7.3168-0.96809-0.62525-1.7762-1.4707-2.793-2.0357-0.77445-0.43032-0.12241-0.0189-0.89492-0.47204-0.45049-0.26423-0.88626-0.55599-1.3375-0.81627-2.0462-5.1012-2.7551-8.0722-4.5631-14.702-0.91176-13.124-4.4779-26.403-21.459-24.232z" stroke="#000" stroke-width=".27136"/>
   <path d="m566.54 482.66c-1.9894 0.13764-2.4972 2.911-4.2859 2.8464-1.3944 0.0296-2.9209-0.64496-4.1573 0.32191 0.50146 3.9682-1.4479 5.305-3.5941 8.6202-1.6721 2.8861-3.2454 5.8433-4.575 8.9019-0.72815 2.2073-0.91746 4.5538-1.2186 6.8457 1.006 0.13206 2.2898-1.5454 3.4305-2.0176 4.3603-2.6383 9.4894-3.3689 14.374-4.473 1.6976-0.0959 3.2791-1.1056 4.8602-0.10772 3.1838 0.13504 6.41-0.39718 9.449-1.3586 2.2298-0.61453 3.6108-2.7492 4.3699-4.7982 0.166-1.4989 0.36788-3.2723-0.86912-4.4027-1.344-1.0606-2.6776-2.4418-4.452-2.6708-1.7259 0.19895-3.6168 0.57153-5.1906-0.42698-1.5526-0.6749-2.0462-2.3498-3.087-3.5119-0.87464-1.2889-2.0572-2.3487-3.2965-3.2657-0.68054 0.0498-1.1251-0.44288-1.7579-0.50287l-3e-5 -2e-5z" fill="#fc0" stroke="#000" stroke-width=".20569"/>
   <path d="m580.8382,494.13917c-.0365.13234-.10556.23746-.16041.35415l-.0589.13933-.0642.13934c-.12474.25955-.26548.50091-.40638.74313-.12822.22041-.23043.481-.39033.66184-.14283.16155-.32221.23952-.47592.37737-.0868.078-.16123.17948-.24595.26126s-.16808.12589-.25133.19159c-.16602.13107-.3157.2978-.48125.42961-.11143.0888-.22678.16788-.33688.26126-.36669.31103-.69248.70177-1.06409,1.00439-.23427.19074-.46789.36838-.68979.58636-.0255.025-.17721.14824-.1818.20321-.001.0206.033.0584.0374.0638 .13478.17071.38942.12538.55611.1219 .15881-.004.31513-.0284.47056-.0753 .14575-.044.28724-.11288.43311-.15677 .24734-.0744.49906-.13881.74861-.19738 .12205-.0287.24704-.0359.36896-.0638 .0861-.0198.17147-.0553.25667-.0813 .11119-.0339.22248-.0505.33153-.0987 .17632-.078.34646-.18521.51868-.2787 .26165-.14203.53767-.24574.76998-.47605 .16154-.16013.33228-.46077.44384-.69089 .0447-.0922.0768-.2001.11767-.29607 .0244-.0573.0636-.11036.0855-.16837 .036-.0948.0187-.22345.0266-.32511 .0128-.16053.0236-.32063.032-.48188 .014-.26795.0488-.53366.0642-.80119 .0108-.17464-.0108-.34865-.016-.52252-.004-.11108-.002-.22664-.0161-.33671-.0156-.12694-.0549-.24253-.0909-.35997-.004-.0108-.0427-.12448-.0427-.13352-.004-.1529.007-.30577-.28875.006z" fill="#fff" stroke="#000" stroke-width=".35563"/>
   <path d="m584.5 480.21c0.87179-0.27188-1.6585-3.5436-3.8012-1.2531-1.6134 1.7247-5.8169 2.2945-6.6587 2.1028 0.9299 2.2342 3.5524 5.5069 6.2055 4.6338 2.7238-0.83817 4.9638-2.7699 4.316-5.5412" fill="#fff" stroke="#000" stroke-width=".27136"/>
   <path d="m559.44 477.25c1.931-0.36863 2.7453 3.5368 5.1398 2.6955-0.94222 2.0441-4.4472 3.3452-5.6358 0.77844-0.59976-1.0742-0.56001-2.6927 0.49594-3.474z" fill="#fff" stroke="#000" stroke-width=".32322"/>
   <path d="m541.37 518.62c-5.3333 5.6062-7.3808 11.775-9.3545 19.593-2.9553 8.2413-0.27206 16.895-0.34385 25.318-0.66674 5.6504-0.56693 11.764 2.928 16.54 3.2117 6.2676 5.8509 12.804 8.4428 19.332 5.1616 13.325 10.047 17.829 23.707 20.597 11.751 2.0322 17.193-1.89 24.821-11.364 1.1272-6.7374-3.875-13.24-1.0875-19.875 2.1614-5.6218 5.3398-10.758 8.2709-15.998 2.2464-5.0001-0.0158-10.61-0.19165-15.855-0.84802-6.8611-1.6802-14.292 1.6994-20.637 1.5904-3.7493 3.2622-7.5396 3.825-11.608-1.9334-4.4638-7.505-4.7312-11.536-6.1706-6.8238-1.3666-22.954 3.3824-28.45 6.9628-2.0027-1.3549-15.127-11.934-21.968-6.9904" fill="#f9f9f9" stroke="#000" stroke-width=".27136"/>
   <path d="m563.86949,529.45627c-.94567,1.19183-1.7035,2.51861-2.4641,3.83192-1.61984,2.85288-2.67206,5.95886-3.61523,9.08572-.43346,1.6127-.93958,3.20415-1.39112,4.81169-.12758.45408-.21832.91925-.37198,1.36515-.63384,1.47488-.36919.75812-.8141,2.14279-.006.0497-.0757.0416-.0701-.007-.0288-.34818-.0525-.69688-.0881-1.04446-.0437-.4278-.14279-.85139-.14969-1.28135-.007-.48361.0618-.9655.10652-1.4471 .15977-1.71769.39879-3.43205.86155-5.09759 .93067-3.30228 2.04625-6.5633 3.77478-9.54546 .82156-1.41652 1.66139-2.8332 2.69912-4.10538 .91356-1.07638 2.43578.21557 1.52224,1.29197z" fill="#333"/>
   <path d="m535.50124,558.28501c1.18029.72609 2.46971,1.23379 3.7591,1.72766 1.73946.65102 3.54898,1.03663 5.3962,1.18697 1.10418-.0128 2.23883.0594 3.33368-.13144 .44608-.0779.94797-.24972 1.38017-.38528 1.05814-.37579 2.01341-.95972 2.92987-1.59795 .75292-.50247 1.4578-1.14555 2.33612-1.42758 .17658-.0567.36242-.0789.54362-.11839 .86461-.0859 1.10131-.0975 1.56792.66795 .0485.012.0313.0805-.0171.0685-.0741.0801-.15567.15405-.22234.24049s-.104.20602-.18408.28632c-.14829.14849-.40619.15425-.5391.32534-.79736.51382-1.66121.9234-2.40929,1.5152-1.07973.73999-2.18953,1.44875-3.45288,1.83641-1.76454.53419-3.58787.96437-5.44466.84757-2.04403-.17521-4.04577-.59581-5.96969-1.32355-1.441-.53681-2.87629-1.14025-4.10567-2.08378-1.15568-.77645-.0576-2.41081 1.09807-1.63436z" fill="#333"/>
   <path d="m559.77569,557.42223c1.31875.55878 2.58649,1.23659 3.8628,1.88572 2.1679,1.15883 4.33627,2.31534 6.56878,3.34542 1.78583.80415 3.65615,1.38608 5.57134,1.78244 1.55537.35327 3.13755.52393 4.7307.51467 1.43019-.0282 2.85545-.1088 4.26101-.37855 .85639-.0519.42678-.0611 1.28869.0275 .0453-.021.075.0429.0297.064-.51471.73206-.21939.39557-.88882,1.00692-.65759.39172-1.34443.80575-2.06824,1.06575-.83833.30113-1.74452.41943-2.62828.46278-1.75897-.0176-3.50675-.1853-5.22306-.58828-2.04386-.51081-4.07224-1.09586-5.97789-2.0125-2.25345-1.05699-4.43458-2.25007-6.62493-3.43055-1.24849-.65575-2.52635-1.25817-3.75879-1.94191-1.27514-.60598-.41813-2.40931.857-1.80329z" fill="#333"/>
   <path d="m556.03753,562.75944c-.018.7213-.15961,1.42879-.42703,2.09754-.27667.65801-.81453,1.0726-1.42536,1.4-.80967.27836-1.65261.42611-2.48189.63046-1.1129.28597-2.18726.69529-3.25044,1.12618-.86355.3388-1.69893.74056-2.53885,1.13205-.79863.39606-1.63558.43632-2.50745.41169-.85592-.0536-1.77308-.21809-2.49561-.71527-.17254-.11876-.31903-.27152-.47851-.40726l-.37299-.52049c-.0431-.0253-.007-.0861.0356-.0609l.57558.0344c.89927.0606 1.79149.20376 2.69418.2114 .65303-.0705 1.26779-.31487 1.8829-.5364 .88045-.32951 1.73072-.7268 2.60068-1.08278 1.13646-.43604 2.29067-.82635 3.47613-1.10818 .72838-.18449 1.47479-.35429 2.16556-.65129 .29045-.0895.54445-.1757.69287-.46312 .26417-.58506.43068-1.21111.72461-1.78385 .20206-.799 1.33204-.51324 1.12999.28576z" fill="#333"/>
   <path d="m556.19684,564.43512c1.37355.0725 2.59432.82677 3.74858,1.50826 1.64603,1.13066 3.17966,2.41468 4.78348,3.60364 1.23062.91179 2.62698,1.50052 4.13015,1.75906 1.11262.14921 1.83227-.21584 2.61763-.95834 .47236-.4721.20836-.24514.80188-.66927 .0176-.0467.0836-.022.0661.0247 .1064.90333.16943.47514-.16648,1.28774-.13791.16676-.25836.34966-.41371.50031-.81086.78637-1.95302,1.02512-3.03941,1.09053-.66469-.0352-.86996-.0136-1.5293-.18544-1.20611-.31439-2.27944-.97811-3.32669-1.6287-1.624-1.08847-3.14608-2.31926-4.80777-3.35216-.91435-.55981-1.85473-1.0877-2.92984-1.25404-1.22073-.0463-1.15529-1.77265.0655-1.72638z" fill="#333"/>
   <path d="m555.85393,566.68934c-.67004,1.17186-1.07365,2.47726-1.47082,3.76068-.60584,1.95859-.74775,3.98257-.70839,6.01787 .15885,1.44106.6514,2.78995 1.35571,4.04704 .23932.38867.50165.75771.65673,1.18917 .47599.66888.16181,1.14322-.43392,1.49133-.49313.29761-.79666.76266-1.09469,1.24044-.71428,1.10702-1.03743,2.38316-1.24948,3.66733-.17083,1.34926-.12447,2.70663.18201,4.03044 .0856.4743.28159.87369.55,1.2593 .47286.46448.27118.93755.20136,1.47898-.13784.79985.0845,1.53631.34001,2.2912 .21031.72729.62237,1.41345.76988,2.16032 .0523.26491.0433.53831.0638.80753 .032.0489-.0373.0942-.0693.0451-.24539-.14005-.51637-.24265-.73621-.42015-.64078-.51738-1.01666-1.33629-1.42705-2.02335-.50502-1.0766-1.16497-2.28897-.81621-3.50533 .004-.006.13352-.26939.13754-.25431 .1462.5486-.17529-.0943.1581.58097 .0128.0244.0714.0815.0573.0582-.0204-.0337-.051-.0601-.0764-.0901-.47128-.55771-.71578-1.29115-.95254-1.96828-.36771-1.56503-.45759-3.16181-.19809-4.75589 .26794-1.5701.66352-3.12149 1.58754-4.44898 .504-.61131 1.0585-1.19638 1.79026-1.53341 .23228-.12576.0155.00031-.0142.11791-.16558.65755-.10161.41575.11959.85005 .012.0213-.0374-.0306-.0559-.0457-.4698-.36578-.82436-.81207-1.0951-1.34861-.79948-1.50432-1.4404-3.0888-1.57473-4.80667-.0358-.35714-.0932-.71275-.10736-1.07138-.0749-1.90275.33106-3.80197.80878-5.6298 .43458-1.39391.97584-2.73869 1.6025-4.05723 .61188-1.20157 2.31116-.33622 1.69929.86535z" fill="#333"/>
   <path d="m558.75946,582.17033c.52518.31526 1.09408.55662 1.6226.86445 .28511.16605.54262.37854.83462.5322 .3058.16095.63519.27235.95282.40854 .0479.0142.0277.0818-.0202.0675-.34039-.0595-.67713-.14591-1.02113-.17867-.33291-.0317-.66962.0108-1.00314-.0139-.6755-.0491-1.35824-.19413-1.99742-.4153-.89437-.44677-.26256-1.71157.63179-1.26483z" fill="#333"/>
   <path d="m544.89859,578.0408c.1646.0603.33507.10652.49381.18095 .73098.34269.73753.45986 1.50471.87108 .59397.31834 1.60125.71669 2.15874,1.0768 .38434.24827.72148.5629 1.08222.84435 .047.0168.0234.083-.0236.0664-.45854-.01-.91994.0238-1.37566-.0279-.70302-.0798-1.6574-.40731-2.35516-.5538-.88105-.18496-.90697-.0912-1.70775-.30278-.16031-.0423-.31206-.11216-.46811-.16816-1.40489-.48849-.71409-2.47531.6908-1.98683z" fill="#333"/>
   <path d="m558.97484,594.42339c.47841.20817.85826.57001 1.29125.84411 .19545.12371.41103.21234.61656.3185 .0488.0108.0344.0793-.0144.0691-.23168.014-.4651.012-.69503.0432s-.44406.11899-.67137.14809c-.25501.0326-.71566.001-.98753-.0108-.9992-.32568-.53865-1.73876.46053-1.4131z" fill="#333"/>
   <path d="m548.25769,596.0745 .17107.49689c.0453.021.0161.0851-.0298.0641l-.52093.17454c-.52001-.26847-.14029-1.00385.37966-.73538z" fill="#333"/>
   <path d="m580.24933,476.71397c.42488-.62146 1.1504-.91698 1.84244-1.13162 .63324-.086 1.3476-.15313 1.9419.15065 .1543.0788.2805.20356.42211.30347l.39731.27466c.0257.0133.006.0497-.0187.0363-.14472-.0516-.28303-.12693-.43412-.15464s-.30443-.004-.45653-.01c-.53494-.0185-1.05372-.0384-1.54402.22251-.56926.25993-1.08482.60996-1.64212.8884-.41079.35933-.91896-.22158-.50819-.58093z" fill="#666"/>
   <path d="m559.92669,475.03052c.53622.0448 1.24174.24447 1.70756.50194 .22058.12191.81805.59235 1.01577.74411 .0256.0138.006.0498-.0194.036-1.21335-.41733.0494-.005-1.15953-.33308-.51445-.13931-1.0174-.32269-1.55724-.34524-.42691-.01-.41403-.61283.0128-.60373z" fill="#666"/>
   <path d="m581.58847,493.19142c-.11899.39838-.28913.75907-.45196,1.12412-.21522.49351-.48116.92522-.77044,1.33612-.34795.45934-.73525.85349-1.12386,1.24281-.41288.44425-.84893.84075-1.29014,1.22755s-.91249.68061-1.38908.95992c-.4502.30845-.91914.55352-1.38132.82307-.4862.23354-.96765.49226-1.4641.68116-.57954.23134-1.14495.52506-1.70193.84461-.76923.45607-1.54376.89627-2.3262,1.30658-.84821.46269-1.69103.94207-2.52844,1.4412-.57907.37086-1.19737.59069-1.79263.89839-.0128.01-.0214-.0154-.01-.0242 .52794-.50126 1.03469-1.0477 1.61246-1.44062 .82334-.56978 1.67587-1.04535 2.53585-1.4979 .77022-.46316 1.54189-.9265 2.3333-1.31617 .58073-.2858 1.15876-.58411 1.75582-.7995 .48009-.1979.975-.32757 1.43186-.62513 .45882-.24162.90405-.53397 1.3473-.82544 .43398-.33521.8609-.68658 1.27612-1.06502 .42458-.39698.83001-.83168 1.24953-1.23881 .36024-.36666.73586-.71434 1.0496-1.15924 .26128-.36608.51069-.75507.7196-1.18159 .15888-.33532.28818-.69377.42347-1.04815 .17122-.48522.66547-.14899.49423.33622z" stroke="#000" stroke-width=".35563"/>
   <path d="m573.47983,500.13293c.37964-.20747.79019-.27131 1.18861-.37826 .68717-.19548 1.37704-.37123 2.06622-.55208 .67481-.14248 1.34462-.32241 2.01054-.52937 .46035-.14969.90892-.35678 1.3422-.61848 .24249-.16003.49621-.31059.70605-.54733 .13634-.1848.20924-.43604.28589-.67365 .0644-.25459.14216-.5029.16337-.77285 .0003-.36229-.081-.71192-.13381-1.06359-.0446-.22322-.0416-.44045-.0311-.66761 .004-.0661.005-.30452.0204-.3754 .0134-.0625.0409-.11756.0613-.17626-.004-.0184.0143-.0269.0187-.01 .0427.0351.0909.0597.12809.10568s.12332.25565.15203.31736c.0882.18921.16933.3742.21183.59581 .10196.43405.19017.88448.17439,1.34518-.0185.35764-.0348.72075-.13459,1.05643-.10196.37364-.24942.70859-.44822.99988-.0637.0931-.15637.23276-.22543.31729-.18747.22939-.41328.39184-.63525.54573-.47641.28927-.96894.51943-1.47521.6869-.67865.23167-1.36804.3881-2.05635.55315-.6912.14812-1.3803.31465-2.0712.46544-.40935.0943-.82232.23896-1.23976.19539-.41803.0771-.49674-.74356-.0787-.82081z" stroke="#000" stroke-width=".35563"/>
   <path d="m577.81291,498.54794c-.0837.24694-.22092.41367-.36503.5912-.002.019-.0216.0144-.0193-.004-.0944-.23206-.18538-.4518-.20793-.72187 .0688-.58147.66115-.44628.5923.1352z" stroke="#000" stroke-width=".35563"/>
   <path d="m568.89885,487.91775c.0608.3031.16523.58756.30593.86178 .22063.31287.2573.41161.22025.79115l-.0176.119c.016.0128-.001.0354-.018.0227l-.11779.0398c-.49617.0831-.68187-.14565-.90928-.55804-.18174-.38057-.32762-.78593-.33363-1.21272-.045-.61521.8251-.67879.87006-.0636z" stroke="#000" stroke-width=".3147"/>
   <path d="m562.50106,487.05523c.2673-.039.52804-.11983.79007-.18653 .20834-.0417.10064-.0283.32338-.0379 .0156-.0133.0343.01.0188.0221-.0546.2317-.0128.12164-.12564.33024-.23839.29766-.47942.46347-.83744.59636-.51211.11959-.68128-.60461-.16917-.72423z" stroke="#000" stroke-width=".3147"/>
  </g>
 </g>
</svg>
